<svg width="175" height="26" viewBox="0 0 175 26" fill="none" xmlns="http://www.w3.org/2000/svg">
<path d="M29.419 22.0989V3.05244C29.419 2.06336 29.6443 1.32075 30.095 0.826374C30.5451 0.33185 31.1282 0.0840645 31.842 0.0840645C32.5785 0.0840645 33.1743 0.329252 33.6307 0.818329C34.0865 1.30751 34.3151 2.0518 34.3151 3.05244V22.0989C34.3151 23.099 34.0865 23.8467 33.6307 24.3414C33.1743 24.8365 32.5785 25.084 31.842 25.084C31.1386 25.084 30.5591 24.8336 30.1028 24.3333C29.6469 23.833 29.419 23.0878 29.419 22.0989Z" fill="#100F0D" fill-opacity="0.2"/>
<path d="M162.427 5.15656C158.333 5.15656 155.002 8.49237 155.002 12.5921C155.002 16.6914 158.333 20.027 162.427 20.027C166.521 20.027 169.853 16.6914 169.853 12.5921C169.853 8.49237 166.521 5.15656 162.427 5.15656ZM162.427 25.084C155.548 25.084 149.951 19.4798 149.951 12.5921C149.951 5.70344 155.548 0.0995712 162.427 0.0995712C169.307 0.0995712 174.903 5.70344 174.903 12.5921C174.903 19.4798 169.307 25.084 162.427 25.084Z" fill="#100F0D" fill-opacity="0.2"/>
<path d="M106.421 5.15656C102.327 5.15656 98.9964 8.49237 98.9964 12.5921C98.9964 16.6914 102.327 20.027 106.421 20.027C110.516 20.027 113.847 16.6914 113.847 12.5921C113.847 8.49237 110.516 5.15656 106.421 5.15656ZM106.421 25.084C99.5424 25.084 93.946 19.4798 93.946 12.5921C93.946 5.70344 99.5424 0.0995712 106.421 0.0995712C113.301 0.0995712 118.897 5.70344 118.897 12.5921C118.897 19.4798 113.301 25.084 106.421 25.084Z" fill="#100F0D" fill-opacity="0.2"/>
<path d="M134.362 19.9658C133.759 20.0052 133.109 20.0121 132.411 20.0121H129.135V5.15607H132.411C133.109 5.15607 133.759 5.16382 134.362 5.20222C136.528 5.46143 138.409 6.65503 139.591 8.37132C140.415 9.56631 140.9 11.011 140.903 12.5691C140.903 12.5732 140.903 12.5772 140.903 12.5814V12.5869C140.903 12.5909 140.903 12.595 140.903 12.5989C140.9 14.1571 140.415 15.6018 139.591 16.7971C138.409 18.5133 136.528 19.7063 134.362 19.9658ZM145.954 12.584V12.5807C145.953 9.82372 145.055 7.2741 143.54 5.2054C141.336 2.19684 137.823 0.210976 133.849 0.0939198C133.725 0.090126 133.602 0.0840645 133.478 0.0840645C133.471 0.0840645 127.213 0.0921383 127.213 0.0921383C126.143 0.0921383 125.369 0.336128 124.89 0.823803C124.411 1.31158 124.171 2.09975 124.171 3.18913V21.9789C124.171 23.0683 124.411 23.8563 124.89 24.3445C125.369 24.8325 126.143 25.0762 127.213 25.0762C127.213 25.0762 133.471 25.084 133.478 25.084C133.602 25.084 133.725 25.0779 133.849 25.0745C137.823 24.9571 141.336 22.9713 143.54 19.9627C145.055 17.894 145.953 15.3443 145.954 12.5875V12.584Z" fill="#100F0D" fill-opacity="0.2"/>
<path d="M86.8805 0.195412C85.9688 -0.0881748 84.9839 0.270605 84.4529 1.08067L76.9307 12.5541L69.4088 1.08067C68.8783 0.270605 67.8929 -0.0881748 66.9812 0.195412C66.0698 0.479303 65.4475 1.33959 65.4475 2.31476V22.7066C65.4475 23.9302 66.4167 24.922 67.6114 24.922C68.8069 24.922 69.7757 23.9302 69.7757 22.7066V9.59231L75.1166 17.7377C75.1201 17.7434 75.1237 17.7486 75.1272 17.7543L75.1338 17.7641C75.1402 17.7741 75.1478 17.7831 75.1544 17.7931C75.1878 17.8419 75.2221 17.8904 75.26 17.9369C75.2765 17.9576 75.2938 17.9759 75.3108 17.9954C75.3408 18.0297 75.3698 18.0641 75.4016 18.0965C75.4301 18.1257 75.4606 18.1531 75.4909 18.1811C75.5128 18.201 75.5346 18.2222 75.5575 18.2417C75.6002 18.2776 75.6435 18.3098 75.6882 18.3414C75.7009 18.3503 75.7121 18.3609 75.7251 18.3695C75.7266 18.3709 75.7284 18.3715 75.7307 18.3729C75.7782 18.4054 75.8276 18.4347 75.8779 18.4633C75.8917 18.4714 75.9054 18.4809 75.9194 18.488C75.9568 18.5087 75.9954 18.5257 76.0346 18.544C76.2535 18.6464 76.4829 18.7105 76.7138 18.7344C76.7159 18.7344 76.7171 18.7346 76.7184 18.7352C76.7644 18.7392 76.8102 18.74 76.8555 18.742C76.8806 18.7429 76.9061 18.7452 76.9307 18.7452C76.9564 18.7452 76.9811 18.7429 77.0063 18.742C77.0523 18.74 77.0978 18.7392 77.1436 18.7352C77.1449 18.7346 77.1466 18.7344 77.1479 18.7344C77.3793 18.7105 77.6084 18.6464 77.8277 18.544C77.8663 18.5257 77.9055 18.5087 77.9426 18.488C77.9571 18.4809 77.9701 18.4714 77.9846 18.4633C78.0347 18.4347 78.0837 18.4054 78.1313 18.3729C78.1336 18.3715 78.1356 18.3709 78.1374 18.3695C78.1501 18.3609 78.1613 18.3503 78.1738 18.3414C78.2185 18.3098 78.2625 18.2776 78.3047 18.2417C78.3279 18.2222 78.3492 18.201 78.3721 18.1804C78.4016 18.1531 78.4319 18.1257 78.4604 18.0971C78.4927 18.0641 78.5216 18.0294 78.5514 17.9951C78.5687 17.9759 78.5862 17.957 78.6023 17.9369C78.6399 17.8904 78.6742 17.8419 78.7078 17.7931C78.7144 17.7831 78.722 17.7741 78.7286 17.7641L78.7347 17.7543C78.7386 17.7486 78.7419 17.7434 78.7459 17.7377L84.086 9.59231V22.7066C84.086 23.9302 85.0544 24.922 86.2511 24.922C87.4453 24.922 88.4152 23.9302 88.4152 22.7066V2.31476C88.4152 1.33959 87.7922 0.479303 86.8805 0.195412Z" fill="#100F0D" fill-opacity="0.2"/>
<path d="M58.082 24.3239H41.9042C41.0533 24.3239 40.1078 23.7908 39.7576 22.9613C39.4072 22.1325 39.3355 21.004 40.089 20.1048L53.3225 4.73004H42.3896C41.1944 4.73004 40.225 3.6935 40.225 2.41465C40.225 1.13582 41.1944 0.354809 42.3896 0.354809H57.1324C57.9831 0.354809 58.8642 0.490274 59.634 1.33474C60.3374 2.10641 60.3064 3.77187 59.5185 4.76505L46.7321 19.6937H58.082C59.2775 19.6937 60.1477 20.7302 60.1477 22.0085C60.1477 23.287 59.2775 24.3239 58.082 24.3239Z" fill="#100F0D" fill-opacity="0.2"/>
<path d="M13.2894 25.084C9.69953 25.084 6.4438 23.6587 4.12201 21.0707C2.07647 18.7906 0.903809 15.7863 0.903809 12.828C0.903809 3.54421 8.6111 0.0843697 13.4696 0.0843697C18.2464 0.0843697 21.753 2.42988 21.8998 2.52924C22.9756 3.26032 23.2635 4.73751 22.5428 5.82856C21.8238 6.91593 20.3743 7.20985 19.2995 6.48702C19.2368 6.44684 16.7493 4.84025 13.4696 4.84025C10.4243 4.84025 6.22474 6.85275 6.22474 12.828C6.22474 16.2273 8.74997 20.2366 13.3799 20.2366C15.9849 20.2366 17.8164 19.5416 18.8811 18.8632V15.3277H15.2735C13.9785 15.3277 12.9286 14.2633 12.9286 12.9498C12.9286 11.6365 13.9785 10.5718 15.2735 10.5718H21.2261C22.521 10.5718 23.5708 11.6365 23.5708 12.9498V20.0226C23.5708 20.666 23.3139 21.2811 22.8592 21.7292C21.2871 23.2767 17.8376 25.084 13.2894 25.084Z" fill="#100F0D" fill-opacity="0.2"/>
</svg>
