<svg width="90" height="90" viewBox="0 0 90 90" fill="none" xmlns="http://www.w3.org/2000/svg">
<g clip-path="url(#clip0_46_144)">
<path d="M66.2064 87.2021C66.0365 87.2021 65.8673 87.1782 65.7041 87.131C65.2277 86.9973 64.8233 86.6806 64.5794 86.2501L50.7092 61.7371C50.1986 60.8367 50.5145 59.6928 51.4149 59.1821C51.4158 59.1816 51.4167 59.1811 51.4177 59.1805C57.7361 55.6329 59.9826 47.6349 56.4349 41.3165C52.8873 34.9981 44.8893 32.7518 38.5709 36.2993C32.2525 39.8468 30.0061 47.8449 33.5537 54.1633C34.7335 56.2648 36.4694 58.0006 38.5709 59.1805C39.4722 59.6898 39.7901 60.833 39.281 61.7345C39.2805 61.7354 39.2799 61.7362 39.2794 61.7373L25.4317 86.254C24.921 87.1544 23.7771 87.4703 22.8765 86.9597C22.876 86.9593 22.8755 86.9591 22.8749 86.9588C1.24097 74.7433 -6.39466 47.3032 5.82045 25.669C18.0356 4.03491 45.4759 -3.60055 67.11 8.61474C88.7441 20.83 96.3796 48.2702 84.1645 69.9041C80.138 77.0353 74.2413 82.9321 67.11 86.9586C66.8343 87.1148 66.5234 87.1986 66.2064 87.2021ZM54.8517 61.4335L66.8926 82.7374C86.1927 70.6476 92.0375 45.201 79.9477 25.901C67.8579 6.60097 42.4111 0.756117 23.1111 12.8459C3.81107 24.9358 -2.03378 50.3823 10.056 69.6824C13.3651 74.9649 17.8286 79.4284 23.1111 82.7374L35.1521 61.4335C27.5878 55.9945 25.8647 45.4535 31.3036 37.8892C36.7425 30.325 47.2835 28.6018 54.8478 34.0408C62.4121 39.4797 64.1352 50.0207 58.6963 57.585C57.6302 59.0677 56.3305 60.3674 54.8478 61.4335H54.8517Z" fill="#52489C"/>
</g>
<defs>
<clipPath id="clip0_46_144">
<rect width="90" height="90" fill="white"/>
</clipPath>
</defs>
</svg>
