<svg width="126" height="26" viewBox="0 0 126 26" fill="none" xmlns="http://www.w3.org/2000/svg">
<path d="M106.365 3.96862V21.2615H114.882C117.262 21.2615 118.639 20.8856 119.641 20.0084C120.894 18.8806 121.52 16.8756 121.52 12.6151C121.52 8.3545 120.894 6.34952 119.641 5.22173C118.639 4.34455 117.262 3.96862 114.882 3.96862H106.365ZM118.013 12.6151C118.013 16.3744 117.763 17.2516 117.011 17.7528C116.51 18.1287 115.884 18.254 114.631 18.254H109.872V6.85077H114.631C115.884 6.85077 116.51 6.85077 117.011 7.35201C117.763 7.97856 118.013 8.85574 118.013 12.6151ZM125.904 25.084H100.916V0.0839844H125.904V25.084ZM80.501 6.85077V3.96862H95.2806V9.48229H92.1483V6.85077H86.1363V10.986H90.8958V13.7429H86.1363V18.3794H92.2746V15.3719H95.4048V21.2615H80.502V18.3794H82.8808V6.85077H80.501ZM67.0992 16.7503C67.0992 18.63 67.2234 20.0084 67.4739 21.1362H70.8567C70.7305 20.259 70.6062 18.63 70.6062 16.4997C70.48 13.9935 69.7285 13.6175 67.9749 13.2416C69.979 12.8657 70.8567 11.9885 70.8567 8.85574C70.8567 6.34952 70.48 5.34704 69.7285 4.72048C69.2275 4.21924 68.3517 3.96862 66.9729 3.96862H56.4519V21.2615H59.9589V14.4947H64.8447C65.8467 14.4947 66.2214 14.62 66.5982 14.8707C66.975 15.1213 67.0992 15.4972 67.0992 16.7503ZM59.9589 11.7379V6.97608H65.5962C66.3477 6.97608 66.5982 7.10139 66.7224 7.2267C66.9729 7.47732 67.2234 7.85325 67.2234 9.35698C67.2234 10.8607 66.9729 11.362 66.7224 11.6126C66.5982 11.7379 66.3477 11.8632 65.5962 11.8632L59.9589 11.7379ZM75.8667 25.084H50.8166V0.0839844H75.8036V25.084H75.8667ZM44.3036 18.3794V21.2615H32.4038V18.3794H36.6623V6.85077H32.4038V3.96862H44.3026V6.85077H40.0441V18.3794H44.3036ZM24.2004 3.96862H20.9439L18.5641 17.6275L15.8086 4.9711C15.6834 4.09393 15.3076 3.96862 14.5561 3.96862H12.8026C12.0511 3.96862 11.6754 4.21924 11.5501 4.9711L8.79459 17.6275L6.41483 3.96862H2.90782L6.28958 20.3843C6.41483 21.1362 6.66533 21.2615 7.54208 21.2615H9.92184C10.6733 21.2615 10.9238 21.1362 11.1743 20.3843L13.8046 8.4798L16.4349 20.3843C16.5601 21.1362 16.8106 21.2615 17.6874 21.2615H19.9419C20.6934 21.2615 21.0691 21.1362 21.1944 20.3843L24.2004 3.96862ZM25.9539 25.084H0.903809V0.0839844H25.8918V25.084H25.9539Z" fill="black" fill-opacity="0.2"/>
</svg>
